HIERARCHY
ROOT hip
{
  OFFSET 0 0 0
  CHANNELS 6 Xposition Yposition Zposition Zrotation Yrotation Xrotation
  JOINT abdomen
  {
    OFFSET 0 20.6881 -0.73152
    CHANNELS 3 Zrotation Xrotation Yrotation
    JOINT chest
    {
      OFFSET 0 11.7043 -0.48768
      CHANNELS 3 Zrotation Xrotation Yrotation
      JOINT neck
      {
        OFFSET 0 22.1894 -2.19456
        CHANNELS 3 Zrotation Xrotation Yrotation
        JOINT head
        {
          OFFSET -0.24384 7.07133 1.2192
          CHANNELS 3 Zrotation Xrotation Yrotation
          JOINT leftEye
          {
            OFFSET 4.14528 8.04674 8.04672
            CHANNELS 3 Zrotation Xrotation Yrotation
            End Site
            {
              OFFSET 1 0 0
            }
          }
          JOINT rightEye
          {
            OFFSET -3.6576 8.04674 8.04672
            CHANNELS 3 Zrotation Xrotation Yrotation
            End Site
            {
              OFFSET 1 0 0
            }
          }
        }
      }
      JOINT rCollar
      {
        OFFSET -2.68224 19.2634 -4.8768
        CHANNELS 3 Zrotation Xrotation Yrotation
        JOINT rShldr
        {
          OFFSET -8.77824 -1.95073 1.46304
          CHANNELS 3 Zrotation Xrotation Yrotation
          JOINT rForeArm
          {
            OFFSET -28.1742 -1.7115 0.48768
            CHANNELS 3 Zrotation Xrotation Yrotation
            JOINT rHand
            {
              OFFSET -22.5879 0.773209 7.07136
              CHANNELS 3 Zrotation Xrotation Yrotation
              JOINT rThumb1
              {
                OFFSET -1.2192 -0.487915 3.41376
                CHANNELS 3 Zrotation Xrotation Yrotation
                JOINT rThumb2
                {
                  OFFSET -3.37035 -0.52449 3.41376
                  CHANNELS 3 Zrotation Xrotation Yrotation
                  End Site
                  {
                    OFFSET -1.78271 -1.18214 1.43049
                  }
                }
              }
              JOINT rIndex1
              {
                OFFSET -7.75947 0.938293 5.60832
                CHANNELS 3 Zrotation Xrotation Yrotation
                JOINT rIndex2
                {
                  OFFSET -2.54057 -0.884171 1.56538
                  CHANNELS 3 Zrotation Xrotation Yrotation
                  End Site
                  {
                    OFFSET -1.62519 -0.234802 1.16502
                  }
                }
              }
              JOINT rMid1
              {
                OFFSET -8.24714 1.18213 3.41376
                CHANNELS 3 Zrotation Xrotation Yrotation
                JOINT rMid2
                {
                  OFFSET -3.10165 -0.590103 1.0647
                  CHANNELS 3 Zrotation Xrotation Yrotation
                  End Site
                  {
                    OFFSET -2.48547 -0.328903 0.83742
                  }
                }
              }
              JOINT rRing1
              {
                OFFSET -8.82822 0.546677 1.51678
                CHANNELS 3 Zrotation Xrotation Yrotation
                JOINT rRing2
                {
                  OFFSET -2.60934 -0.819778 -0.0198488
                  CHANNELS 3 Zrotation Xrotation Yrotation
                  End Site
                  {
                    OFFSET -2.33842 -0.294052 0.168128
                  }
                }
              }
              JOINT rPinky1
              {
                OFFSET -8.27202 -0.0477905 -0.4584
                CHANNELS 3 Zrotation Xrotation Yrotation
                JOINT rPinky2
                {
                  OFFSET -1.82734 -0.647385 -0.700984
                  CHANNELS 3 Zrotation Xrotation Yrotation
                  End Site
                  {
                    OFFSET -1.69225 -0.51767 -0.607171
                  }
                }
              }
            }
          }
        }
      }
      JOINT lCollar
      {
        OFFSET 2.68224 19.2634 -4.8768
        CHANNELS 3 Zrotation Xrotation Yrotation
        JOINT lShldr
        {
          OFFSET 8.77824 -1.95073 1.46304
          CHANNELS 3 Zrotation Xrotation Yrotation
          JOINT lForeArm
          {
            OFFSET 28.1742 -1.7115 0.48768
            CHANNELS 3 Zrotation Xrotation Yrotation
            JOINT lHand
            {
              OFFSET 22.5879 0.773209 7.07136
              CHANNELS 3 Zrotation Xrotation Yrotation
              JOINT lThumb1
              {
                OFFSET 1.2192 -0.487915 3.41376
                CHANNELS 3 Zrotation Xrotation Yrotation
                JOINT lThumb2
                {
                  OFFSET 3.37035 -0.52449 3.41376
                  CHANNELS 3 Zrotation Xrotation Yrotation
                  End Site
                  {
                    OFFSET 1.78271 -1.18214 1.43049
                  }
                }
              }
              JOINT lIndex1
              {
                OFFSET 7.75947 0.938293 5.60832
                CHANNELS 3 Zrotation Xrotation Yrotation
                JOINT lIndex2
                {
                  OFFSET 2.54057 -0.884171 1.56538
                  CHANNELS 3 Zrotation Xrotation Yrotation
                  End Site
                  {
                    OFFSET 1.62519 -0.234802 1.16502
                  }
                }
              }
              JOINT lMid1
              {
                OFFSET 8.24714 1.18213 3.41376
                CHANNELS 3 Zrotation Xrotation Yrotation
                JOINT lMid2
                {
                  OFFSET 3.10165 -0.590103 1.0647
                  CHANNELS 3 Zrotation Xrotation Yrotation
                  End Site
                  {
                    OFFSET 2.48547 -0.328903 0.83742
                  }
                }
              }
              JOINT lRing1
              {
                OFFSET 8.82822 0.546677 1.51678
                CHANNELS 3 Zrotation Xrotation Yrotation
                JOINT lRing2
                {
                  OFFSET 2.60934 -0.819778 -0.0198488
                  CHANNELS 3 Zrotation Xrotation Yrotation
                  End Site
                  {
                    OFFSET 2.33842 -0.294052 0.168128
                  }
                }
              }
              JOINT lPinky1
              {
                OFFSET 8.27202 -0.0477905 -0.4584
                CHANNELS 3 Zrotation Xrotation Yrotation
                JOINT lPinky2
                {
                  OFFSET 1.82734 -0.647385 -0.700984
                  CHANNELS 3 Zrotation Xrotation Yrotation
                  End Site
                  {
                    OFFSET 1.69225 -0.51767 -0.607171
                  }
                }
              }
            }
          }
        }
      }
    }
  }
  JOINT rButtock
  {
    OFFSET -8.77824 4.35084 1.2192
    CHANNELS 3 Zrotation Xrotation Yrotation
    JOINT rThigh
    {
      OFFSET 0 -1.70687 -2.19456
      CHANNELS 3 Zrotation Xrotation Yrotation
      JOINT rShin
      {
        OFFSET 0 -36.8199 0.73152
        CHANNELS 3 Zrotation Xrotation Yrotation
        JOINT rFoot
        {
          OFFSET 0.73152 -45.1104 -5.12064
          CHANNELS 3 Zrotation Xrotation Yrotation
          End Site
          {
            OFFSET -1.1221 -3.69964 12.103
          }
        }
      }
    }
  }
  JOINT lButtock
  {
    OFFSET 8.77824 4.35084 1.2192
    CHANNELS 3 Zrotation Xrotation Yrotation
    JOINT lThigh
    {
      OFFSET 0 -1.70687 -2.19456
      CHANNELS 3 Zrotation Xrotation Yrotation
      JOINT lShin
      {
        OFFSET 0 -36.8199 0.73152
        CHANNELS 3 Zrotation Xrotation Yrotation
        JOINT lFoot
        {
          OFFSET -0.73152 -45.1104 -5.12064
          CHANNELS 3 Zrotation Xrotation Yrotation
          End Site
          {
            OFFSET 1.1221 -3.69964 12.103
          }
        }
      }
    }
  }
}
MOTION
Frames:	4
Frame Time:	0.00833333
147.523 82.8842 274.149 0.0 0.0 0.0 -2.7169 0.00115967 -0.0732887 -0.748394 0.0144143 -0.129498 2.20281e-14 7.95139e-16 2.48481e-16 6.65618e-14 9.54166e-15 5.41999e-16 -0.0 0.0 0.0 -0.0 0.0 0.0 1.10821e-14 1.35694e-16 2.48481e-16 2.36945e-13 2.78299e-15 2.98177e-15 4.07225e-12 -1.11916e-12 -9.54166e-15 4.65172e-11 1.73226e-12 3.78486e-13 1.09738e-10 1.32786e-12 7.95139e-13 1.89505e-10 2.28682e-12 1.3581e-12 1.09743e-10 1.32709e-12 7.82416e-13 7.73091 5.47488 0.417314 1.09737e-10 1.32709e-12 8.015e-13 2.90554 0.965183 0.102902 1.09739e-10 1.32758e-12 7.90368e-13 10.2786 0.731801 0.0259123 1.09734e-10 1.32828e-12 8.0468e-13 2.22167 -0.733487 -0.20892 1.08844e-14 1.36664e-16 -4.96962e-17 2.34709e-13 2.57799e-15 1.59028e-15 4.05625e-12 1.31198e-12 -6.36111e-15 4.65127e-11 -7.14382e-13 3.78486e-13 1.09707e-10 1.29823e-12 7.88778e-13 1.89471e-10 2.23911e-12 1.36287e-12 1.09702e-10 1.29727e-12 7.98319e-13 -7.73091 5.47488 -0.417314 1.09709e-10 1.29747e-12 7.88778e-13 -2.90554 0.965183 -0.102902 1.097e-10 1.29777e-12 7.89573e-13 -10.2786 0.731801 -0.0259123 1.09714e-10 1.30085e-12 7.76055e-13 -2.22167 -0.733487 0.20892 -2.03217e-16 0.0 -3.88251e-19 -1.56571 -1.93222 0.00882215 -0.00886293 -2.07861 -0.0729645 -0.497471 3.9993 0.138181 2.03217e-16 0.0 3.88251e-19 -2.55874 -8.62938 0.275689 -0.00721086 10.0516 -0.186923 0.546001 -1.43367 -0.0319454
143.644 81.7888 265.939 -175.074 -52.129 176.572 -1.54594 0.673588 0.0153792 -2.07466 1.85368 -0.0429282 1.32744 1.79356 0.578464 1.7176 -5.3847 1.13027 -0.0 0.0 0.0 -0.0 0.0 0.0 -4.26322e-14 7.74711e-14 2.67354e-13 21.418 7.89402 0.46762 -5.40129 -2.74664 8.09454 1.80877e-05 -0.0943401 -0.0132586 -6.88477e-10 -2.72498e-09 9.48291e-10 -1.19149e-09 -4.72261e-09 1.64324e-09 -6.88471e-10 -2.72498e-09 9.48276e-10 7.73091 5.47488 0.417314 -6.88477e-10 -2.72498e-09 9.48295e-10 2.90554 0.965183 0.102902 -6.88474e-10 -2.72498e-09 9.48285e-10 10.2786 0.731801 0.0259123 -6.8848e-10 -2.72498e-09 9.48295e-10 2.22167 -0.733487 -0.20892 -4.27506e-14 7.74716e-14 2.6707e-13 -19.1616 9.11145 -2.38382 4.22611 -1.92141 -6.59957 -0.00787025 -1.9681 0.276009 -8.38262e-10 -6.24973e-10 7.25052e-10 -1.45367e-09 -1.08269e-09 1.24987e-09 -8.38267e-10 -6.24976e-10 7.25061e-10 -7.73091 5.47488 -0.417314 -8.38261e-10 -6.24976e-10 7.25052e-10 -2.90554 0.965183 -0.102902 -8.3827e-10 -6.24976e-10 7.25053e-10 -10.2786 0.731801 -0.0259123 -8.38255e-10 -6.24973e-10 7.2504e-10 -2.22167 -0.733487 0.20892 -2.03217e-16 0.0 -3.88251e-19 -1.0462 -5.61129 -1.2984 0.0029922 6.88723 0.0776164 -1.06801 -0.064389 -4.52738 2.03217e-16 0.0 3.88251e-19 -1.04926 -10.8216 1.92084 -0.00986488 16.1298 -0.268892 0.746071 -4.93479 1.38546
143.639 81.7886 265.934 -175.048 -52.1601 176.518 -0.308256 1.38405 0.112354 -3.48145 3.80194 0.0497368 2.69129 3.68685 1.19105 3.76595 -11.0708 2.35681 -0.0 0.0 0.0 -0.0 0.0 0.0 -1.04796e-13 1.66231e-13 5.81076e-13 43.9126 16.2353 0.994188 -10.275 -5.46664 16.7092 -1.02602e-05 -0.194006 -0.0272657 -1.60619e-09 -5.85605e-09 2.0415e-09 -2.77918e-09 -1.0149e-08 3.53759e-09 -1.60618e-09 -5.85604e-09 2.04148e-09 7.73091 5.47488 0.417314 -1.60619e-09 -5.85605e-09 2.0415e-09 2.90554 0.965183 0.102902 -1.60618e-09 -5.85605e-09 2.0415e-09 10.2786 0.731801 0.0259123 -1.60619e-09 -5.85605e-09 2.0415e-09 2.22167 -0.733487 -0.20892 -1.04827e-13 1.66231e-13 5.80805e-13 -38.5547 18.6925 -5.11539 8.22096 -3.87124 -13.6079 0.00447791 -4.04998 0.569081 -1.92042e-09 -1.35127e-09 1.5539e-09 -3.3294e-09 -2.34086e-09 2.67865e-09 -1.92043e-09 -1.35127e-09 1.55391e-09 -7.73091 5.47488 -0.417314 -1.92042e-09 -1.35128e-09 1.5539e-09 -2.90554 0.965183 -0.102902 -1.92043e-09 -1.35128e-09 1.5539e-09 -10.2786 0.731801 -0.0259123 -1.92041e-09 -1.35127e-09 1.55389e-09 -2.22167 -0.733487 0.20892 -2.03217e-16 0.0 -3.88251e-19 -0.684002 -9.49399 -2.71397 -0.0373209 16.3671 0.245548 -2.38697 -4.30356 -9.4755 2.03217e-16 0.0 3.88251e-19 0.687587 -13.1255 3.68988 0.00805748 22.5572 -0.364757 1.14774 -8.62982 2.90505
143.651 81.7869 265.923 -175.0 -52.073 176.499 0.78973 2.01843 0.192832 -4.74392 5.53219 0.130888 3.87328 5.37847 1.74221 5.81193 -16.1284 3.51433 -0.0 0.0 0.0 -0.0 0.0 0.0 -1.50061e-13 2.32142e-13 8.01565e-13 63.8372 23.6755 1.5173 -13.9362 -7.58346 24.4835 -7.67233e-05 -0.28302 -0.0397761 -2.28491e-09 -8.17759e-09 2.84328e-09 -3.95347e-09 -1.41724e-08 4.927e-09 -2.2849e-09 -8.17758e-09 2.84326e-09 7.73091 5.47488 0.417314 -2.28491e-09 -8.17759e-09 2.84328e-09 2.90554 0.965183 0.102902 -2.2849e-09 -8.17759e-09 2.84328e-09 10.2786 0.731801 0.0259123 -2.28491e-09 -8.17759e-09 2.84328e-09 2.22167 -0.733487 -0.20892 -1.5002e-13 2.32141e-13 8.01308e-13 -54.9785 27.133 -7.93966 11.3748 -5.45896 -19.8815 0.0335306 -5.90375 0.831951 -2.7342e-09 -1.87752e-09 2.17358e-09 -4.73996e-09 -3.25255e-09 3.7469e-09 -2.73421e-09 -1.87752e-09 2.17359e-09 -7.73091 5.47488 -0.417314 -2.7342e-09 -1.87752e-09 2.17358e-09 -2.90554 0.965183 -0.102902 -2.73421e-09 -1.87752e-09 2.17358e-09 -10.2786 0.731801 -0.0259123 -2.73419e-09 -1.87752e-09 2.17357e-09 -2.22167 -0.733487 0.20892 -2.03217e-16 0.0 -3.88251e-19 -0.522067 -12.9432 -3.99585 -0.125017 24.8184 0.415364 -4.18796 -7.95236 -13.9951 2.03217e-16 0.0 3.88251e-19 2.35994 -15.1616 5.29983 0.0448895 28.2858 -0.461977 1.6754 -11.9087 4.2975
